<svg xmlns="http://www.w3.org/2000/svg" xmlns:xlink="http://www.w3.org/1999/xlink" viewBox="0 0 750 500"><defs><clipPath id="freepik--clip-path--inject-2"><path d="M375.47,201.41s-1.78,4-4.27,9.08l0,0c-4.32,8.86-13.39,20.78-30.69,19.91-28.14-2.23-36.37-33.87-36.37-33.87s.55-12.56-5.61-16.74-13.4-48-13.4-48l21.16-35.71,21.08,7.7,29.27,10.72,9.92,7.24.53,15.64-11.26,12.27s3.45,27.66,2.15,36.83C356.78,194.89,375.47,201.41,375.47,201.41Z" style="fill:#263238;opacity:0.2"></path></clipPath></defs><g id="freepik--background-simple--inject-2"><path d="M555.91,49.14c-59.07-35-137.66-22.66-193,19.31-39.59,30-76.34,65-121.52,85.68C206.65,170,167,177.64,141.06,207.79c-40.55,47.2-35.15,113.73-7,165.7,32.68,60.31,92,87.41,158.11,96,65.87,8.59,135.25-1.28,193.05-35.19,77-45.18,118.29-131.53,133-217C629.26,152.92,615.73,84.55,555.91,49.14Z" style="fill:#025566"></path><path d="M555.91,49.14c-59.07-35-137.66-22.66-193,19.31-39.59,30-76.34,65-121.52,85.68C206.65,170,167,177.64,141.06,207.79c-40.55,47.2-35.15,113.73-7,165.7,32.68,60.31,92,87.41,158.11,96,65.87,8.59,135.25-1.28,193.05-35.19,77-45.18,118.29-131.53,133-217C629.26,152.92,615.73,84.55,555.91,49.14Z" style="fill:#fff;opacity:0.7000000000000001"></path></g><g id="freepik--Interface--inject-2"><g id="freepik--capa-6--inject-2"><path d="M632.15,96.46V424.12a15.32,15.32,0,0,1-15.33,15.32H128.66a15.32,15.32,0,0,1-15.32-15.32V96.46c0-.22,0-.44,0-.65a15.32,15.32,0,0,1,14.52-14.66l.78,0H616.82l.79,0a15.32,15.32,0,0,1,14.52,14.66C632.14,96,632.15,96.24,632.15,96.46Z" style="fill:#fff;stroke:#263238;stroke-linecap:round;stroke-linejoin:round"></path><path d="M632.13,95.81H113.36a15.32,15.32,0,0,1,14.52-14.66l.78,0H616.82l.79,0A15.32,15.32,0,0,1,632.13,95.81Z" style="fill:#025566;stroke:#263238;stroke-miterlimit:10"></path><path d="M139.9,88.47a2.4,2.4,0,1,1-2.4-2.4A2.39,2.39,0,0,1,139.9,88.47Z" style="fill:#263238"></path><path d="M149.36,88.47a2.4,2.4,0,1,1-2.4-2.4A2.39,2.39,0,0,1,149.36,88.47Z" style="fill:#263238"></path><path d="M158.83,88.47a2.41,2.41,0,1,1-2.41-2.4A2.4,2.4,0,0,1,158.83,88.47Z" style="fill:#263238"></path></g><circle cx="139.52" cy="242.73" r="12.31" style="fill:#fff;stroke:#263238;stroke-linecap:round;stroke-linejoin:round"></circle><polyline points="141.82 235.46 135.74 242.73 141.82 248.63" style="fill:#fff;stroke:#263238;stroke-linecap:round;stroke-linejoin:round"></polyline></g><g id="freepik--progress-bar--inject-2"><path d="M389.56,402.19a6.27,6.27,0,0,0,1.19,4.88c1.78,2.39,3.41,2.69,3.41,2.69v10.5s-9.35,1.82-11.58.49c-1.51-.91-1.45-5.66-1.25-8.61a2.75,2.75,0,0,1,2.53-2.57l3-.25S386.14,401,389.56,402.19Z" style="fill:#263238"></path><rect x="395.55" y="409.32" width="3.41" height="11.13" style="fill:#263238"></rect><path d="M408.59,416.29v.88a2.31,2.31,0,1,1-4.61,0v-.28l1.39-.14v.32c0,.76.33,1.09.89,1.09s.88-.33.88-1v-1c0-.76-.33-1.09-1.09-1.09h-.57v-1.36H406c.76,0,1.09-.33,1.09-1.09v-.74a.76.76,0,0,0-.82-.86c-.52,0-.82.3-.82,1v.21H404V412a2.24,2.24,0,1,1,4.47,0v.62a2.14,2.14,0,0,0,.1,3.71Z" style="fill:#263238"></path><path d="M409.75,417.22V412a2.32,2.32,0,0,1,4.63,0v5.21a2.32,2.32,0,0,1-4.63,0Zm3.18,0V412a.87.87,0,1,0-1.74,0v5.21a.87.87,0,1,0,1.74,0Z" style="fill:#263238"></path><path d="M420.53,415.46l-.55,1.05v2.87h-1.44v-9.53H420v3.87l1.91-3.87h1.55l-2,4,2.18,5.49H422Z" style="fill:#263238"></path><path d="M446.19,426.51a6.32,6.32,0,0,1,1.19-4.88c1.78-2.4,3.42-2.69,3.42-2.69v-10.5s-9.36-1.83-11.58-.49c-1.52.91-1.45,5.66-1.26,8.61a2.76,2.76,0,0,0,2.54,2.57l3,.25S442.78,427.7,446.19,426.51Z" style="fill:#263238"></path><rect x="452.68" y="408.25" width="3.41" height="11.13" style="fill:#263238"></rect><path d="M464.73,411.9h-1.64v-1a2.41,2.41,0,0,0,2.07-1.05h1v9.54h-1.44Z" style="fill:#263238"></path><path d="M469.06,418h2.86v1.37h-4.57v-1.26l2.11-3.36a4.79,4.79,0,0,0,1-2.65c0-.66-.31-1-.87-1s-.87.37-.87,1v.56h-1.39v-.45a2.2,2.2,0,0,1,2.27-2.5,2.14,2.14,0,0,1,2.3,2.35,6,6,0,0,1-1.28,3.42Z" style="fill:#263238"></path><path d="M473,417.2v-.29l1.39-.14v.32c0,.76.33,1.06.86,1.06s.86-.3.86-.93V415c0-.56-.3-.84-.76-.84a.87.87,0,0,0-.9.94v.17H473v-5.45h4.13v1.36h-2.74v2.37a1.56,1.56,0,0,1,1.38-.69,1.7,1.7,0,0,1,1.72,1.92v2.4a2.28,2.28,0,1,1-4.55,0Z" style="fill:#263238"></path><polygon points="268.78 420.14 268.78 412.8 272.52 412.8 278.22 407.25 278.22 424.64 273.5 419.84 268.78 420.14" style="fill:#263238"></polygon><path d="M283.77,416a5.53,5.53,0,0,1-3.46,5.14V410.81A5.53,5.53,0,0,1,283.77,416Z" style="fill:#263238"></path><path d="M279.74,407.24a8.84,8.84,0,0,1,.55,17.3" style="fill:none;stroke:#263238;stroke-miterlimit:10"></path><path d="M206.68,424.15h0a1.63,1.63,0,0,1-1.63-1.63V410.43a1.63,1.63,0,0,1,1.63-1.63h0a1.63,1.63,0,0,1,1.63,1.63v12.09A1.63,1.63,0,0,1,206.68,424.15Z" style="fill:#263238"></path><path d="M213.19,424.15h0a1.63,1.63,0,0,1-1.63-1.63V410.43a1.63,1.63,0,0,1,1.63-1.63h0a1.63,1.63,0,0,1,1.63,1.63v12.09A1.63,1.63,0,0,1,213.19,424.15Z" style="fill:#263238"></path><path d="M174.23,409h0a1.65,1.65,0,0,1,1.64,1.64v12.19a1.64,1.64,0,0,1-1.64,1.64h0a1.63,1.63,0,0,1-1.64-1.64V410.59A1.64,1.64,0,0,1,174.23,409Z" style="fill:#263238"></path><path d="M186.4,410.26V423a.67.67,0,0,1-1.08.53l-8.44-6.68a.67.67,0,0,1,0-1.07l8.44-6.1A.67.67,0,0,1,186.4,410.26Z" style="fill:#263238"></path><path d="M245.46,423.78h0a1.65,1.65,0,0,1-1.62-1.66l.15-12.19a1.63,1.63,0,0,1,1.66-1.62h0a1.63,1.63,0,0,1,1.62,1.66l-.14,12.19A1.66,1.66,0,0,1,245.46,423.78Z" style="fill:#263238"></path><path d="M233.31,422.32l.15-12.78a.67.67,0,0,1,1.09-.51l8.36,6.78a.67.67,0,0,1,0,1.06l-8.51,6A.67.67,0,0,1,233.31,422.32Z" style="fill:#263238"></path><rect x="166.79" y="374.85" width="302.93" height="20.77" rx="8.91" style="fill:#fff;stroke:#263238;stroke-linecap:round;stroke-linejoin:round"></rect><path d="M459.89,385.2a2.31,2.31,0,0,1-2.33,2.33H180.07a2.33,2.33,0,0,1,0-4.66H457.56A2.33,2.33,0,0,1,459.89,385.2Z" style="fill:#263238"></path><path d="M250.23,382.87l-.16,4.66h-70a2.33,2.33,0,0,1,0-4.66Z" style="fill:#025566"></path><path d="M255.28,384.73a6.35,6.35,0,1,1-6.35-6.35A6.35,6.35,0,0,1,255.28,384.73Z" style="fill:#263238"></path><path d="M251.49,384.65a2.58,2.58,0,1,1-2.58-2.57A2.58,2.58,0,0,1,251.49,384.65Z" style="fill:#fff"></path></g><g id="freepik--Window--inject-2"><path d="M481,146.4V342.56a14.76,14.76,0,0,1-14.75,14.75H181.54a14.75,14.75,0,0,1-14.75-14.75V146.4a13.2,13.2,0,0,1,.18-2.29,14.76,14.76,0,0,1,14.57-12.46H466.2a14.78,14.78,0,0,1,14.57,12.46A14.26,14.26,0,0,1,481,146.4Z" style="fill:#fff;stroke:#263238;stroke-linecap:round;stroke-linejoin:round"></path><rect x="172.16" y="108.03" width="101.09" height="10.71" style="fill:#263238"></rect></g><g id="freepik--Videos--inject-2"><rect x="550.22" y="135.94" width="62.32" height="6.19" style="fill:#263238"></rect><rect x="550.22" y="147.91" width="62.32" height="6.19" style="fill:#263238"></rect><rect x="550.22" y="159.88" width="62.32" height="6.19" style="fill:#263238"></rect><rect x="425.14" y="124.27" width="109.18" height="68.31" rx="8.91" style="opacity:0.1"></rect><rect x="432.41" y="119.01" width="109.18" height="68.31" rx="8.91" style="fill:#025566;stroke:#263238;stroke-miterlimit:10"></rect><circle cx="487.05" cy="153.48" r="23.11" style="fill:#fff"></circle><polygon points="480.49 166.83 480.49 141.31 500.77 154.07 480.49 166.83" style="fill:#263238"></polygon><rect x="550.22" y="226.38" width="62.32" height="6.19" style="fill:#263238"></rect><rect x="550.22" y="238.34" width="62.32" height="6.19" style="fill:#263238"></rect><rect x="550.22" y="250.31" width="62.32" height="6.19" style="fill:#263238"></rect><rect x="425.14" y="212.91" width="109.18" height="68.31" rx="8.91" style="opacity:0.1"></rect><rect x="432.41" y="208.03" width="109.18" height="68.31" rx="8.91" style="fill:#025566;stroke:#263238;stroke-miterlimit:10"></rect><circle cx="487.05" cy="242.73" r="23.11" transform="translate(-55.59 201.73) rotate(-22.17)" style="fill:#fff"></circle><polygon points="480.49 256.08 480.49 230.56 500.77 243.32 480.49 256.08" style="fill:#263238"></polygon><rect x="550.22" y="314.73" width="62.32" height="6.19" style="fill:#263238"></rect><rect x="550.22" y="326.7" width="62.32" height="6.19" style="fill:#263238"></rect><rect x="550.22" y="338.67" width="62.32" height="6.19" style="fill:#263238"></rect><rect x="425.14" y="301.03" width="109.18" height="68.31" rx="8.91" style="opacity:0.1"></rect><rect x="432.41" y="297.06" width="109.18" height="68.31" rx="8.91" style="fill:#025566;stroke:#263238;stroke-miterlimit:10"></rect><circle cx="487.05" cy="331.98" r="23.11" transform="translate(-89.62 209.98) rotate(-22.33)" style="fill:#fff"></circle><polygon points="480.49 345.34 480.49 319.81 500.77 332.57 480.49 345.34" style="fill:#263238"></polygon></g></svg>